<svg width="149" height="208" viewBox="0 0 149 208" fill="none" xmlns="http://www.w3.org/2000/svg">
<path d="M123.561 18.5571C138.835 32.939 147.961 51.5031 148.686 72.5572C148.507 93.5537 140.302 110.148 127.373 126.245C123.526 124.617 119.647 122.838 117.373 119.245C116.99 115.93 117.06 112.827 117.26 109.499C117.499 106.253 117.499 106.253 116.748 103.167C116.29 99.5985 117.028 98.0847 118.686 94.9322C124.127 83.6721 125.49 71.1373 121.811 58.9947C115.944 43.6792 106.546 34.6876 92.0803 27.8111C81.0564 22.9429 66.3473 23.9987 55.2053 27.979C50.8492 29.9258 47.1246 32.313 43.3733 35.2447C42.7597 35.6842 42.1461 36.1238 41.5139 36.5767C32.6009 43.4192 28.147 53.6286 25.3733 64.2447C24.8976 68.2089 24.9053 72.0928 24.9861 76.0808C24.9946 77.7541 24.9946 77.7541 25.0034 79.4611C25.0174 81.8608 25.0401 84.2604 25.0708 86.6599C25.1162 90.4657 25.1311 94.2705 25.1372 98.0765C25.158 108.889 25.2163 119.701 25.3352 130.513C25.4078 137.148 25.4273 143.781 25.4185 150.415C25.4247 152.932 25.4495 155.449 25.4935 157.966C25.8658 179.703 25.8658 179.703 20.8573 185.778C18.8442 187.806 16.6577 189.533 14.3733 191.245C12.8163 192.923 12.8163 192.923 11.6037 194.549C8.04239 199.03 4.44518 203.216 0.37326 207.245C0.302947 189.12 0.250167 170.995 0.217827 152.869C0.202407 144.452 0.181408 136.035 0.146942 127.618C0.11689 120.275 0.097651 112.932 0.0909958 105.59C0.0871101 101.707 0.0780793 97.8254 0.0560684 93.9432C0.0354518 90.2767 0.0294746 86.6104 0.0339355 82.9439C0.0327382 80.9822 0.0167314 79.0206 0 77.059C0.0736432 55.505 6.87895 36.5956 22.0608 20.9946C49.8535 -6.48785 94.3366 -6.66368 123.561 18.5571Z" fill="#D0AC6C"/>
<path d="M79.4048 121.419C93.4929 127.622 93.4929 127.622 108.248 125.932C110.833 124.536 112.548 123.499 114.373 121.245C117.809 122.772 120.492 124.844 123.373 127.245C120.451 134.503 111.245 138.837 104.443 142.045C86.4337 149.08 68.7908 151.126 50.373 144.245C43.8215 141.339 37.8766 137.841 32.373 133.245C34.0623 127.67 37.5043 123.051 42.4395 119.944C55.4486 113.355 66.6835 116.052 79.4048 121.419Z" fill="#CFAB6C"/>
<path d="M74.8342 33.1196C79.2576 34.5257 82.1126 36.656 85.6233 39.6196C86.2343 40.1146 86.8453 40.6096 87.4749 41.1196C89.1309 42.4719 90.7691 43.8313 92.3733 45.2446C92.8925 45.6882 93.4117 46.1317 93.9467 46.5887C96.4285 49.4694 95.7351 53.2258 95.6663 56.8501C95.662 57.6893 95.6578 58.5285 95.6534 59.3931C95.6366 62.0731 95.599 64.7524 95.5608 67.4321C95.5457 69.2492 95.5321 71.0662 95.5198 72.8833C95.4867 77.3374 95.4349 81.7909 95.3733 86.2446C89.9385 84.4506 84.677 82.3948 79.3733 80.2446C79.0433 74.6346 78.7133 69.0246 78.3733 63.2446C75.7333 63.2446 73.0933 63.2446 70.3733 63.2446C70.0433 68.5246 69.7133 73.8046 69.3733 79.2446C61.4533 79.7396 61.4533 79.7396 53.3733 80.2446C53.2582 75.7773 53.1588 71.3151 53.0986 66.8474C53.0735 65.3293 53.0395 63.8114 52.9961 62.2937C52.9352 60.1065 52.907 57.9208 52.885 55.7329C52.8588 54.4185 52.8326 53.104 52.8057 51.7498C53.5173 47.3551 54.9945 46.0384 58.3733 43.2446C58.9178 42.7491 59.4622 42.2537 60.0232 41.7432C61.5817 40.4305 63.1605 39.1466 64.7483 37.8696C65.2871 37.4069 65.8259 36.9441 66.3811 36.4673C69.2966 34.1418 71.0833 33.2551 74.8342 33.1196Z" fill="#CEAB6C"/>
<path d="M94.3736 91.2446C92.6172 95.3736 89.8386 98.645 87.0611 102.12C86.5874 102.719 86.1136 103.318 85.6256 103.936C82.5983 107.754 79.5064 111.513 76.3736 115.245C74.9146 114.935 73.4564 114.622 71.9986 114.307C70.7804 114.046 70.7804 114.046 69.5377 113.78C67.3736 113.245 67.3736 113.245 65.3736 112.245C54.4025 111.342 45.3898 113.184 36.3541 119.549C33.375 122.099 31.4813 124.951 29.3736 128.245C29.0436 128.245 28.7136 128.245 28.3736 128.245C27.7477 115.727 30.962 103.429 39.4478 93.9204C54.8568 79.372 77.0995 79.9964 94.3736 91.2446Z" fill="#2C3A52"/>
<path d="M87.373 105.245C92.8745 106.105 96.5395 108.605 101.123 111.62C101.903 112.115 102.683 112.61 103.486 113.12C104.228 113.602 104.969 114.084 105.732 114.581C106.408 115.019 107.083 115.458 107.778 115.91C109.373 117.245 109.373 117.245 110.373 120.245C104.851 123.826 99.7416 124.143 93.373 123.245C88.9104 121.851 84.6424 120.145 80.373 118.245C80.373 113.653 81.0581 112.913 83.873 109.495C84.5227 108.695 85.1724 107.896 85.8418 107.073C86.3471 106.469 86.8524 105.866 87.373 105.245Z" fill="#2C3A52"/>
<path d="M96.373 93.2446C102.389 94.3835 107.171 98.7712 111.373 103.057C114.003 107.249 113.854 110.43 113.373 115.245C107.862 114.382 104.162 111.878 99.5605 108.87C98.7723 108.375 97.984 107.88 97.1719 107.37C96.4274 106.888 95.683 106.405 94.916 105.909C94.2356 105.47 93.5552 105.031 92.8542 104.579C92.3655 104.139 91.8767 103.698 91.373 103.245C91.373 99.8487 91.8947 99.1784 93.873 96.5571C94.3371 95.9345 94.8012 95.3119 95.2793 94.6704C95.6402 94.1999 96.0012 93.7294 96.373 93.2446Z" fill="#2C3A52"/>
<path d="M95.373 92.2446C95.703 93.2346 96.033 94.2246 96.373 95.2446C92.4613 100.833 92.4613 100.833 89.0605 102.12C88.5037 102.161 87.9468 102.202 87.373 102.245C88.93 98.423 91.4071 96.0584 94.373 93.2446C94.703 92.9146 95.033 92.5846 95.373 92.2446Z" fill="#3D4960"/>
</svg>
